<?xml version="1.0" encoding="UTF-8" standalone="no"?>
<!-- Created with Inkscape (http://www.inkscape.org/) -->

<svg
   xmlns:dc="http://purl.org/dc/elements/1.1/"
   xmlns:cc="http://creativecommons.org/ns#"
   xmlns:rdf="http://www.w3.org/1999/02/22-rdf-syntax-ns#"
   xmlns:svg="http://www.w3.org/2000/svg"
   xmlns="http://www.w3.org/2000/svg"
   xmlns:sodipodi="http://sodipodi.sourceforge.net/DTD/sodipodi-0.dtd"
   xmlns:inkscape="http://www.inkscape.org/namespaces/inkscape"
   width="1052.3622"
   height="744.09448"
   id="svg2"
   version="1.1"
   inkscape:version="0.48.5 r10040"
   sodipodi:docname="New document 1">
  <defs
     id="defs4">
    <inkscape:path-effect
       effect="skeletal"
       id="path-effect3141"
       is_visible="true"
       pattern="M 0,5 C 0,2.24 2.24,0 5,0 7.76,0 10,2.24 10,5 10,7.76 7.76,10 5,10 2.24,10 0,7.76 0,5 z"
       copytype="single_stretched"
       prop_scale="1"
       scale_y_rel="false"
       spacing="0"
       normal_offset="0"
       tang_offset="0"
       prop_units="false"
       vertical_pattern="false"
       fuse_tolerance="0" />
    <inkscape:path-effect
       effect="spiro"
       id="path-effect3139"
       is_visible="true" />
    <inkscape:path-effect
       effect="skeletal"
       id="path-effect3135"
       is_visible="true"
       pattern="m 1012.3408,173.77192 c 0,-2.76 2.24,-5 5,-5 2.76,0 5,2.24 5,5 0,2.76 -2.24,5 -5,5 -2.76,0 -5,-2.24 -5,-5 z"
       copytype="single_stretched"
       prop_scale="1"
       scale_y_rel="false"
       spacing="0"
       normal_offset="0"
       tang_offset="0"
       prop_units="false"
       vertical_pattern="false"
       fuse_tolerance="0" />
    <inkscape:path-effect
       effect="spiro"
       id="path-effect3133"
       is_visible="true" />
    <inkscape:path-effect
       effect="skeletal"
       id="path-effect3123"
       is_visible="true"
       pattern="M 0,5 C 0,2.24 2.24,0 5,0 7.76,0 10,2.24 10,5 10,7.76 7.76,10 5,10 2.24,10 0,7.76 0,5 z"
       copytype="single_stretched"
       prop_scale="1"
       scale_y_rel="false"
       spacing="0"
       normal_offset="0"
       tang_offset="0"
       prop_units="false"
       vertical_pattern="false"
       fuse_tolerance="0" />
    <inkscape:path-effect
       effect="spiro"
       id="path-effect3121"
       is_visible="true" />
    <inkscape:path-effect
       fuse_tolerance="0"
       vertical_pattern="false"
       prop_units="false"
       tang_offset="0"
       normal_offset="0"
       spacing="0"
       scale_y_rel="false"
       prop_scale="0.5"
       copytype="single_stretched"
       pattern="m -173.38061,501.48927 0,10 10,-5 z"
       is_visible="true"
       id="path-effect3117"
       effect="skeletal" />
    <inkscape:path-effect
       is_visible="true"
       id="path-effect3115"
       effect="spiro" />
    <inkscape:path-effect
       effect="skeletal"
       id="path-effect3111"
       is_visible="true"
       pattern="m -2.7019706,346.09529 0,10 10,-5 z"
       copytype="single_stretched"
       prop_scale="0.5"
       scale_y_rel="false"
       spacing="0"
       normal_offset="0"
       tang_offset="0"
       prop_units="false"
       vertical_pattern="false"
       fuse_tolerance="0" />
    <inkscape:path-effect
       effect="spiro"
       id="path-effect3109"
       is_visible="true" />
    <inkscape:path-effect
       effect="skeletal"
       id="path-effect3081"
       is_visible="true"
       pattern="m 54.662333,-14.736994 0,9.9999998 10,-5 z"
       copytype="single_stretched"
       prop_scale="1"
       scale_y_rel="false"
       spacing="0"
       normal_offset="0"
       tang_offset="0"
       prop_units="false"
       vertical_pattern="false"
       fuse_tolerance="0" />
    <inkscape:path-effect
       effect="spiro"
       id="path-effect3079"
       is_visible="true" />
    <inkscape:path-effect
       fuse_tolerance="0"
       vertical_pattern="false"
       prop_units="false"
       tang_offset="0"
       normal_offset="0"
       spacing="0"
       scale_y_rel="false"
       prop_scale="0.5"
       copytype="single_stretched"
       pattern="m 11.469664,296.60666 0,10 10,-5 z"
       is_visible="true"
       id="path-effect3073"
       effect="skeletal" />
    <inkscape:path-effect
       effect="skeletal"
       id="path-effect3069"
       is_visible="true"
       pattern="M 0,0 0,10 10,5 z"
       copytype="single_stretched"
       prop_scale="1"
       scale_y_rel="false"
       spacing="0"
       normal_offset="0"
       tang_offset="0"
       prop_units="false"
       vertical_pattern="false"
       fuse_tolerance="0" />
    <inkscape:path-effect
       fuse_tolerance="0"
       vertical_pattern="false"
       prop_units="false"
       tang_offset="0"
       normal_offset="0"
       spacing="0"
       scale_y_rel="false"
       prop_scale="1"
       copytype="single_stretched"
       pattern="m -71.685404,517.58907 0,10 10,-5 z"
       is_visible="true"
       id="path-effect3043"
       effect="skeletal" />
    <inkscape:path-effect
       is_visible="true"
       id="path-effect3041"
       effect="spiro" />
    <inkscape:path-effect
       fuse_tolerance="0"
       vertical_pattern="false"
       prop_units="false"
       tang_offset="0"
       normal_offset="0"
       spacing="0"
       scale_y_rel="false"
       prop_scale="1"
       copytype="single_stretched"
       pattern="m 113.26294,551.99807 0,10 10,-5 z"
       is_visible="true"
       id="path-effect3037"
       effect="skeletal" />
    <inkscape:path-effect
       is_visible="true"
       id="path-effect3035"
       effect="spiro" />
    <inkscape:path-effect
       effect="skeletal"
       id="path-effect3031"
       is_visible="true"
       pattern="M 0,0 0,10 10,5 z"
       copytype="single_stretched"
       prop_scale="1"
       scale_y_rel="false"
       spacing="0"
       normal_offset="0"
       tang_offset="0"
       prop_units="false"
       vertical_pattern="false"
       fuse_tolerance="0" />
    <inkscape:path-effect
       effect="spiro"
       id="path-effect3029"
       is_visible="true" />
    <inkscape:path-effect
       effect="skeletal"
       id="path-effect3025"
       is_visible="true"
       pattern="M 0,0 0,10 10,5 z"
       copytype="single_stretched"
       prop_scale="1"
       scale_y_rel="false"
       spacing="0"
       normal_offset="0"
       tang_offset="0"
       prop_units="false"
       vertical_pattern="false"
       fuse_tolerance="0" />
    <inkscape:path-effect
       effect="spiro"
       id="path-effect3023"
       is_visible="true" />
    <inkscape:path-effect
       effect="skeletal"
       id="path-effect3019"
       is_visible="true"
       pattern="M 0,0 0,10 10,5 z"
       copytype="single_stretched"
       prop_scale="1"
       scale_y_rel="false"
       spacing="0"
       normal_offset="0"
       tang_offset="0"
       prop_units="false"
       vertical_pattern="false"
       fuse_tolerance="0" />
    <inkscape:path-effect
       effect="spiro"
       id="path-effect3017"
       is_visible="true" />
    <inkscape:path-effect
       effect="skeletal"
       id="path-effect3007"
       is_visible="true"
       pattern="M 0,0 0,10 10,5 z"
       copytype="single_stretched"
       prop_scale="1"
       scale_y_rel="false"
       spacing="0"
       normal_offset="0"
       tang_offset="0"
       prop_units="false"
       vertical_pattern="false"
       fuse_tolerance="0" />
    <inkscape:path-effect
       effect="spiro"
       id="path-effect3005"
       is_visible="true" />
    <inkscape:path-effect
       effect="skeletal"
       id="path-effect2995"
       is_visible="true"
       pattern="M 0,0 0,10 10,5 z"
       copytype="single_stretched"
       prop_scale="6"
       scale_y_rel="false"
       spacing="0"
       normal_offset="0"
       tang_offset="0"
       prop_units="false"
       vertical_pattern="false"
       fuse_tolerance="0" />
    <inkscape:path-effect
       effect="spiro"
       id="path-effect2993"
       is_visible="true" />
  </defs>
  <sodipodi:namedview
     id="base"
     pagecolor="#ffffff"
     bordercolor="#666666"
     borderopacity="1.0"
     inkscape:pageopacity="0.0"
     inkscape:pageshadow="2"
     inkscape:zoom="0.5018073"
     inkscape:cx="838.10851"
     inkscape:cy="431.79147"
     inkscape:document-units="mm"
     inkscape:current-layer="layer1"
     showgrid="false"
     inkscape:window-width="1366"
     inkscape:window-height="706"
     inkscape:window-x="-8"
     inkscape:window-y="-8"
     inkscape:window-maximized="1" />
  <metadata
     id="metadata7">
    <rdf:RDF>
      <cc:Work
         rdf:about="">
        <dc:format>image/svg+xml</dc:format>
        <dc:type
           rdf:resource="http://purl.org/dc/dcmitype/StillImage" />
        <dc:title></dc:title>
      </cc:Work>
    </rdf:RDF>
  </metadata>
  <g
     inkscape:label="Layer 1"
     inkscape:groupmode="layer"
     id="layer1"
     transform="translate(0,-308.2677)">
    <path
       style="fill:#000000;fill-rule:evenodd;stroke:none"
       d="m -81.029871,368.50254 38.760848,45.79952 C 8.6583904,369.1476 69.20931,334.1446 134.2604,311.37081 c 65.06225,-22.73949 134.77775,-33.3064 203.99335,-29.69807 51.5225,2.61805 103.05528,12.91003 153.66055,27.38888 2e-5,10e-6 4e-5,10e-6 7e-5,2e-5 50.87556,14.57556 100.86685,33.48413 150.62681,53.5712 39.95332,16.20632 80.84059,33.43837 124.47461,42.98639 43.69595,9.67696 90.86354,10.38188 133.37216,-5.78364 2e-5,-1e-5 4e-5,-2e-5 7e-5,-3e-5 21.25187,-8.14918 40.92274,-20.67422 56.63883,-37.20496 15.72944,-16.5483 27.19124,-37.1795 32.00701,-59.44517 4.81272,-22.29152 2.6141,-46.03458 -6.97185,-66.56165 -9.60925,-20.54258 -26.77017,-37.39386 -47.58957,-45.73823 -21.86185,-8.7201 -47.12459,-7.58119 -67.79871,2.73879 -20.66889,10.33101 -36.36914,29.64957 -42.2916,51.53974 6.84811,-21.61847 23.22023,-39.84403 43.53053,-48.92421 20.30508,-9.09122 44.40964,-8.98487 64.3028,-0.0242 18.99954,8.51656 34.09398,24.89947 42.03398,43.87729 10e-6,2e-5 2e-5,4e-5 3e-5,6e-5 7.96665,19.00092 8.904,40.69281 3.77837,60.49385 -5.12379,19.83197 -16.35147,37.92694 -31.01271,52.15871 -14.67668,14.25145 -32.92844,24.69451 -52.35369,31.26382 -38.83663,13.26816 -82.00951,10.2683 -122.45815,-0.13158 -40.52436,-10.53213 -79.11336,-28.95536 -118.67239,-46.86108 -49.22975,-22.38107 -99.31774,-43.77679 -151.31267,-61.14124 -1e-5,-10e-6 -3e-5,-10e-6 -4e-5,-10e-6 -51.74515,-17.29969 -105.53887,-30.38517 -160.89432,-35.67845 -74.6178,-7.03852 -150.6609,1.02737 -222.76337,22.86641 -72.113617,21.80473 -140.425711,57.42096 -199.590371,105.43913 z"
       id="path2991"
       inkscape:path-effect="#path-effect2993;#path-effect2995"
       inkscape:original-d="m -61.649447,391.4023 c 0,0 179.213507,-237.99554 401.438257,-130.46743 222.22475,107.5281 -86.02248,140.50339 308.24723,88.8899 409.57506,-53.61711 455.54036,-129.30665 285.30791,-156.27418 -144.80452,-22.93933 -53.0472,-22.93933 -108.96182,51.61349"
       inkscape:connector-curvature="0"
       transform="translate(0,308.2677)"
       sodipodi:nodetypes="csssc" />
    <path
       style="fill:#000000;fill-rule:evenodd;stroke:none"
       d="m 443.38508,263.43981 -3.606,9.3272 c 20.95559,7.8285 43.98408,9.62868 65.7687,5.21785 21.78333,-4.41755 42.15346,-15.01254 58.19929,-30.18502 16.04199,-15.17662 27.64947,-34.82718 33.19876,-56.05374 5.54503,-21.22773 4.99878,-43.90591 -1.48316,-64.71639 -1.87984,-6.05038 -4.28592,-12.00112 -7.54014,-17.51834 -6.60791,-11.178991 -16.67297,-20.197125 -28.41211,-25.528189 0,-3e-6 -10e-6,-6e-6 -2e-5,-9e-6 -11.74045,-5.328263 -25.06981,-6.930745 -37.65207,-4.579965 -12.5819,2.352809 -24.34101,8.644587 -33.23329,17.721799 -8.89155,9.077944 -14.87416,20.897854 -16.93509,33.342424 2.35175,-12.3929 8.59164,-23.97826 17.56086,-32.715036 8.9685,-8.737506 20.64615,-14.607757 32.91302,-16.603483 12.26651,-1.997755 25.11129,-0.120112 36.22001,5.242101 1e-5,3e-6 2e-5,6e-6 2e-5,9e-6 11.11003,5.359415 20.4895,14.204819 26.46681,24.888649 2.95869,5.27574 5.10949,11.00945 6.79694,16.89066 5.78714,20.2261 5.76335,42.04241 0.006,62.12804 0,1e-5 0,1e-5 0,2e-5 -5.75284,20.08678 -17.24471,38.46847 -32.65263,52.36819 -15.4041,13.90386 -34.75836,23.35895 -55.04659,26.97352 -20.28694,3.62131 -41.57539,1.41622 -60.56955,-6.20029 z"
       id="path3027"
       inkscape:path-effect="#path-effect3029;#path-effect3031"
       inkscape:original-d="M 441.58208,268.10341 C 630.83155,157.70789 678.7615,182.79701 593.55514,127.60002 545.17521,96.259321 580.65177,31.541577 586.3866,110.39552 c 5.73484,78.85394 -220.79105,18.63821 -114.69665,20.07191"
       inkscape:connector-curvature="0"
       transform="translate(0,308.2677)"
       sodipodi:nodetypes="cssc" />
    <path
       sodipodi:nodetypes="cssc"
       inkscape:connector-curvature="0"
       inkscape:original-d="M 530.21737,608.17681 C 340.9679,718.57233 293.03795,693.48321 378.24431,748.6802 c 48.37993,31.3407 30.10787,107.5281 24.37304,28.67416 -5.73484,-78.85394 131.90115,-58.78203 25.80675,-60.21573"
       inkscape:path-effect="#path-effect3041;#path-effect3043"
       id="path3039"
       d="m 527.94982,612.63307 4.5351,-8.91252 c -20.99552,-10.37136 -45.03505,-14.09612 -68.0231,-10.63907 -22.98673,3.46654 -44.69352,14.08135 -61.45391,29.94263 -16.75517,15.86693 -28.41778,36.84265 -33.06645,59.27095 -4.64299,22.42954 -2.23726,46.14455 6.70386,67.04673 2.56297,6.00939 5.71458,11.86643 9.8848,17.00933 0,10e-6 10e-6,10e-6 10e-6,2e-5 4.17112,5.14947 9.43904,9.52664 15.57927,12.15693 8.25722,3.5162 17.84074,3.57425 26.07071,0.21957 10e-6,-10e-6 10e-6,-10e-6 2e-5,-10e-6 8.2277,-3.36042 14.95404,-10.07308 18.32572,-18.20178 0,0 0,-10e-6 10e-6,-10e-6 3.3679,-8.13033 3.33001,-17.55221 -0.0419,-25.58636 -3.37379,-8.03339 -10.03853,-14.57839 -18.03987,-17.80085 7.92048,3.41638 14.34418,10.08628 17.45582,18.03781 3.11355,7.95076 2.89466,17.12749 -0.53272,24.85283 -3.42361,7.72696 -10.04039,13.97198 -17.86067,16.93929 -1e-5,0 -1e-5,0 -2e-5,0 -7.81803,2.97305 -16.83043,2.66698 -24.36121,-0.76791 -5.62911,-2.55147 -10.4307,-6.78376 -14.252,-11.70849 0,0 0,0 0,-10e-6 -3.82275,-4.93201 -6.67614,-10.5995 -9.03,-16.47354 -8.16476,-20.44077 -9.87729,-43.35928 -4.92472,-64.63071 0,-10e-6 0,-2e-5 0,-2e-5 4.94688,-21.27268 16.56068,-40.91535 32.65834,-55.42178 16.09243,-14.51209 36.70211,-23.92135 58.03358,-26.59863 21.33016,-2.68675 43.45844,1.34601 62.33932,11.2656 z"
       style="fill:#000000;fill-rule:evenodd;stroke:none" />
    <path
       style="fill:#000000;fill-rule:evenodd;stroke:none"
       d="m 981.39228,289.71544 9.99739,-0.22865 c -4.4e-4,-0.008 -8.9e-4,-0.016 -0.001,-0.0239 -0.001,-0.0311 -0.003,-0.0621 -0.004,-0.0931 -0.006,-0.12186 -0.0121,-0.24296 -0.0183,-0.36331 -0.0243,-0.47163 -0.0501,-0.94053 -0.0768,-1.40679 0,0 0,0 0,-10e-6 -0.10131,-1.76991 -0.21556,-3.53408 -0.33783,-5.29294 0,0 0,0 0,-1e-5 -0.43749,-6.29352 -0.97928,-12.57155 -1.60446,-18.83409 0,-10e-6 0,-10e-6 0,-10e-6 -1.91633,-19.21589 -4.59028,-38.38357 -8.46387,-57.30802 0,0 0,0 0,0 -2.12407,-10.37993 -4.62243,-20.70468 -7.74643,-30.84368 -2.86524,-9.30848 -6.25239,-18.51506 -10.69298,-27.21148 0,-1e-5 0,-1e-5 0,-1e-5 -3.67696,-7.22073 -8.12858,-14.22277 -14.10454,-19.72555 -2.53038,-2.32887 -5.35711,-4.35499 -8.45559,-5.82024 -2.9622,-1.40014 -6.16825,-2.25713 -9.40656,-2.46793 3.22253,0.38262 6.34443,1.40436 9.17314,2.92994 2.96165,1.59651 5.60668,3.72239 7.95177,6.1189 5.55263,5.6709 9.48173,12.71087 12.73052,19.97439 0,1e-5 0,1e-5 10e-6,1e-5 3.89986,8.7465 6.72497,17.93519 9.06486,27.24726 2.54343,10.13533 4.45682,20.42159 6.00903,30.76974 2.8296,18.87033 4.45348,37.8999 5.33903,56.96623 0,0 0,0 0,0 0.28771,6.2102 0.49213,12.41745 0.59259,18.61845 0,0 0,1e-5 0,1e-5 0.0281,1.73315 0.048,3.46171 0.0548,5.18537 0.002,0.45411 0.003,0.90563 0.002,1.35452 0,0 0,0 0,10e-6 -1.9e-4,0.11604 -5.1e-4,0.23134 -0.001,0.3459 -1.4e-4,0.0291 -2.9e-4,0.0582 -4.6e-4,0.0872 -1.2e-4,0.007 -2.4e-4,0.0145 -3.6e-4,0.0218 z"
       id="path3067"
       inkscape:path-effect="#path-effect3069"
       inkscape:original-d="m 986.39114,289.60903 c 0,0 -3.34752,-164.68505 -55.91461,-169.5133"
       inkscape:connector-curvature="0"
       transform="translate(0,308.2677)"
       sodipodi:nodetypes="cc" />
    <path
       inkscape:connector-curvature="0"
       inkscape:original-d="m 989.25855,584.78198 c 0,0 1.43372,-177.7798 -64.51686,-162.00901"
       inkscape:path-effect="#path-effect3073"
       id="path3071"
       d="m 986.75865,584.76071 4.99993,0.0255 c -8e-5,-0.008 -1.7e-4,-0.0169 -2.5e-4,-0.0253 -2.1e-4,-0.033 -4.4e-4,-0.066 -7e-4,-0.0989 -9.9e-4,-0.12955 -0.002,-0.25867 -0.004,-0.38736 0,0 0,0 0,-10e-6 -0.005,-0.50207 -0.0128,-1.00259 -0.0214,-1.50159 0,0 0,-10e-6 0,-10e-6 -0.0325,-1.88758 -0.0814,-3.772 -0.14062,-5.65336 0,0 0,-10e-6 0,-10e-6 -0.21024,-6.67624 -0.55144,-13.34382 -1.00121,-20.00005 0,-10e-6 0,-10e-6 0,-10e-6 -1.34662,-19.9562 -3.61077,-39.89006 -7.51726,-59.51776 0,0 0,0 0,0 -2.07033,-10.40526 -4.61538,-20.74286 -8.02957,-30.80254 0,0 0,0 0,0 -3.03197,-8.94362 -6.73956,-17.74785 -11.90218,-25.6855 0,0 -10e-6,0 -10e-6,-1e-5 -2.22638,-3.42282 -4.74351,-6.67556 -7.65007,-9.55222 0,0 0,0 0,0 -10e-6,0 -10e-6,0 -10e-6,-1e-5 -2.63789,-2.61133 -5.61307,-4.90448 -8.9079,-6.61185 0,0 0,0 0,-1e-5 -3.19049,-1.65248 -6.675,-2.72407 -10.23208,-3.10678 -3.89218,-0.41798 -7.83526,-0.0246 -11.60999,0.93 3.79822,-0.85636 7.73546,-1.1436 11.57372,-0.62927 3.50724,0.46928 6.90976,1.61669 9.99516,3.31737 0,0 10e-6,0 10e-6,0 3.18922,1.75701 6.04295,4.08243 8.56438,6.7081 0,0 0,0 0,0 0,0 0,0 0,0 2.77906,2.89457 5.16388,6.15247 7.26886,9.57601 0,0 0,10e-6 0,10e-6 4.88583,7.94544 8.30192,16.71539 11.08179,25.6454 3.12131,10.03947 5.37132,20.33596 7.15963,30.71049 0,0 0,0 0,10e-6 3.37254,19.57178 5.09988,39.39805 5.92667,59.25216 0,0 0,0 0,10e-6 0.27499,6.61907 0.44184,13.23907 0.47846,19.85562 0.0103,1.86462 0.0103,3.72662 -0.006,5.58564 -0.004,0.49148 -0.01,0.98144 -0.0172,1.46986 0,0 0,0 0,1e-5 -0.002,0.12607 -0.004,0.2517 -0.006,0.3769 -5.9e-4,0.0318 -0.001,0.0636 -0.002,0.0954 -1.9e-4,0.008 -3.9e-4,0.016 -5.9e-4,0.024 z"
       style="fill:#000000;fill-rule:evenodd;stroke:none"
       sodipodi:nodetypes="cc" />
    <path
       style="fill:#000000;fill-rule:evenodd;stroke:none"
       d="m 614.94351,632.0561 -1.39106,4.8026 c 29.40005,8.33514 61.70246,5.5498 89.14529,-7.60359 27.43893,-13.16165 49.72245,-36.54896 61.53131,-64.45937 7.17385,-16.88838 10.51325,-36.00002 6.07136,-53.91264 -2.23197,-8.95801 -6.44109,-17.47007 -12.54896,-24.40916 -6.11051,-6.941 -14.15477,-12.23012 -23.07345,-14.67861 -11.26855,-3.09117 -23.88849,-1.34668 -33.50345,5.24699 0,10e-6 -10e-6,10e-6 -10e-6,2e-5 -4.80591,3.30114 -8.81702,7.75475 -11.51434,12.91401 -2.69704,5.16004 -4.05705,11.01373 -3.82102,16.82036 0.3098,7.56263 3.37676,14.96042 8.48103,20.50792 5.1054,5.54647 12.20277,9.19358 19.65321,10.12104 10e-6,0 10e-6,0 2e-5,0 7.45058,0.92644 15.19493,-0.87399 21.45242,-4.9674 6.25721,-4.09383 10.98361,-10.45163 13.10138,-17.59109 -2.19763,7.11528 -6.98572,13.39065 -13.23725,17.38086 -6.25125,3.99063 -13.93332,5.67563 -21.25198,4.68118 -7.3188,-0.99344 -14.24307,-4.66176 -19.16242,-10.13004 -4.92049,-5.46725 -7.82001,-12.71608 -8.03577,-20.03781 -0.16762,-5.62507 1.21866,-11.27774 3.87512,-16.22644 2.65632,-4.94972 6.58024,-9.20147 11.23805,-12.32613 10e-6,0 10e-6,0 10e-6,0 9.29944,-6.24905 21.49993,-7.75872 32.24802,-4.68893 8.52694,2.43335 16.19534,7.62023 21.98644,14.33697 5.79475,6.7198 9.74212,14.96607 11.80166,23.60978 4.13962,17.28465 0.61794,35.77054 -6.50544,52.16997 0,0 0,0 -1e-5,10e-6 -11.81425,27.09054 -33.8145,49.60664 -60.49286,62.0277 -26.67444,12.42933 -57.95116,14.73032 -86.0473,6.4118 z"
       id="path3107"
       inkscape:path-effect="#path-effect3109;#path-effect3111"
       inkscape:original-d="m 614.24798,634.4574 c 142.30378,-65.74795 131.4959,-11.70854 148.60838,-70.25123 17.11248,-58.5427 35.52979,-120.37959 -28.41685,-91.55857 -63.94663,28.82102 -139.96701,-8.21943 -48.10001,34.11144 91.867,42.33087 -24.27532,61.22689 62.18774,8.08814"
       inkscape:connector-curvature="0"
       sodipodi:nodetypes="csssc" />
    <path
       inkscape:connector-curvature="0"
       inkscape:original-d="m 641.55247,650.85586 c -142.30378,65.74795 -131.4959,11.70854 -148.60838,70.25123 -17.11248,58.5427 -59.44335,95.46963 4.50329,66.64861 63.94663,-28.82102 164.35725,-19.92865 65.03878,-39.09343 -112.49124,-21.70664 37.79646,-25.92451 -45.24897,23.79661"
       inkscape:path-effect="#path-effect3115;#path-effect3117"
       id="path3113"
       d="m 640.68734,653.2014 1.73026,-4.69108 c -29.32338,-10.62732 -62.76731,-8.94263 -90.76841,4.47308 -27.99541,13.42774 -50.1272,38.38387 -60.11266,67.63487 -3.77758,11.05145 -5.87623,22.77843 -5.31929,34.48985 0.55626,11.71596 3.88308,23.40002 10.29872,33.24814 6.44869,9.89559 16.11484,17.78478 27.35171,21.42237 11.24351,3.63554 23.98989,2.76554 34.28823,-2.98754 5.14787,-2.88056 9.63797,-6.93467 12.94559,-11.81024 3.30751,-4.87632 5.40986,-10.56661 5.97315,-16.4221 0.56275,-5.85606 -0.43105,-11.85683 -2.93088,-17.16905 -2.50061,-5.31234 -6.51126,-9.90632 -11.47478,-13.01584 -4.42077,-2.76833 -9.56938,-4.34326 -14.76696,-4.52506 -5.19759,-0.18148 -10.42832,1.03069 -15.00457,3.46939 -4.57615,2.43889 -8.48565,6.09777 -11.21704,10.48762 -2.73129,4.38991 -4.27829,9.50074 -4.44322,14.65307 0.2218,-5.15019 1.82442,-10.22838 4.58769,-14.56207 2.76319,-4.33375 6.68281,-7.91649 11.23152,-10.27639 4.54859,-2.3601 9.72115,-3.49479 14.82491,-3.25983 10e-6,0 10e-6,0 2e-5,0 5.10378,0.23465 10.13507,1.83871 14.42201,4.59009 4.81421,3.08847 8.67372,7.61894 11.04704,12.80727 2.37426,5.18878 3.26966,11.03131 2.66332,16.69311 -0.60583,5.66268 -2.70744,11.14779 -5.94963,15.81802 -10e-6,0 -10e-6,0 -10e-6,0 -3.24223,4.67119 -7.62407,8.53371 -12.60943,11.25303 -9.9569,5.44045 -22.27374,6.10945 -33.01429,2.51515 -10.75436,-3.5946 -19.96537,-11.32147 -26.06154,-20.88212 -6.0762,-9.52589 -9.13882,-20.84268 -9.56567,-32.15783 -0.42624,-11.32154 1.75294,-22.67479 5.53851,-33.40138 0,0 1e-5,-10e-6 1e-5,-2e-5 10.02184,-28.35986 31.86237,-52.36878 59.00279,-65.00524 27.13474,-12.6485 59.43817,-13.86626 87.3329,-3.38927 z"
       style="fill:#000000;fill-rule:evenodd;stroke:none"
       sodipodi:nodetypes="csssc" />
  </g>
</svg>
